<svg xmlns="http://www.w3.org/2000/svg" width="24" height="24" viewBox="0 0 24 24" fill="none">
  <path d="M12 24C5.39163 24 0 18.6195 0 12C0 5.38047 5.39163 0 12 0C18.6084 0 24 5.38047 24 12C24 18.6195 18.6195 24 12 24ZM12 1.67442C6.30698 1.67442 1.67442 6.30698 1.67442 12C1.67442 17.693 6.30698 22.3256 12 22.3256C17.693 22.3256 22.3256 17.693 22.3256 12C22.3256 6.30698 17.693 1.67442 12 1.67442Z" fill="#292D32"/>
  <path d="M16.4652 12.837H7.53496C7.07729 12.837 6.69775 12.4575 6.69775 11.9998C6.69775 11.5421 7.07729 11.1626 7.53496 11.1626H16.4652C16.9229 11.1626 17.3024 11.5421 17.3024 11.9998C17.3024 12.4575 16.934 12.837 16.4652 12.837Z" fill="#292D32"/>
</svg>