<svg xmlns="http://www.w3.org/2000/svg" width="24" height="24" viewBox="0 0 24 24" fill="none">
  <g clip-path="url(#clip0_154_1452)">
    <path d="M12 0C8.7948 0 5.78064 1.24874 3.5148 3.51552C1.24793 5.78146 0 8.79456 0 12C0 15.2054 1.24874 18.2184 3.51552 20.4845C5.78052 22.7514 8.79456 24 12 24C15.2054 24 18.2184 22.7513 20.4852 20.4845C22.7521 18.2176 24.0007 15.2045 24.0007 12C24.0007 8.7948 22.752 5.7816 20.4852 3.51552C18.2183 1.24865 15.2052 0 12 0ZM19.4251 19.4242C17.4414 21.4079 14.8051 22.5 12 22.5C9.19488 22.5 6.55872 21.4078 4.57488 19.4242C2.59207 17.4414 1.5 14.8051 1.5 12C1.5 9.19488 2.59219 6.55872 4.57584 4.57584C6.55865 2.5921 9.19488 1.5 12 1.5C14.8051 1.5 17.4413 2.59219 19.4251 4.57584C21.4089 6.55865 22.501 9.19584 22.501 12C22.5 14.8042 21.4078 17.4413 19.4251 19.4242Z" fill="black"/>
    <path d="M18.75 11.25H12.75V5.25C12.75 4.83562 12.4144 4.5 12 4.5C11.5856 4.5 11.25 4.83562 11.25 5.25V11.25H5.25C4.83562 11.25 4.5 11.5856 4.5 12C4.5 12.4144 4.83562 12.75 5.25 12.75H11.25V18.75C11.25 19.1644 11.5856 19.5 12 19.5C12.4144 19.5 12.75 19.1644 12.75 18.75V12.75H18.75C19.1644 12.75 19.5 12.4144 19.5 12C19.5 11.5856 19.1644 11.25 18.75 11.25Z" fill="black"/>
  </g>
  <defs>
    <clipPath id="clip0_154_1452">
      <rect width="24" height="24" fill="white"/>
    </clipPath>
  </defs>
</svg>