<svg width="65" height="65" viewBox="0 0 65 65" fill="none" xmlns="http://www.w3.org/2000/svg">
<g id="lni_lni-user">
<g id="Group">
<path id="Vector" d="M32.5 37.375C40.9297 37.375 47.7344 30.5703 47.7344 22.1406C47.7344 13.7109 40.9297 6.90625 32.5 6.90625C24.0703 6.90625 17.2656 13.7109 17.2656 22.1406C17.2656 30.5703 24.0703 37.375 32.5 37.375ZM32.5 11.4766C38.3906 11.4766 43.1641 16.25 43.1641 22.1406C43.1641 28.0312 38.3906 32.8047 32.5 32.8047C26.6094 32.8047 21.8359 28.0312 21.8359 22.1406C21.8359 16.25 26.6094 11.4766 32.5 11.4766Z" fill="white"/>
<path id="Vector_2" d="M62.4609 54.0312C54.1328 47.0234 43.5703 43.1641 32.5 43.1641C21.4297 43.1641 10.8672 47.0234 2.53906 54.0312C1.625 54.8437 1.42187 56.2656 2.23437 57.2812C3.04687 58.1953 4.46875 58.3984 5.48437 57.5859C13 51.1875 22.5469 47.7344 32.5 47.7344C42.4531 47.7344 52 51.1875 59.4141 57.4844C59.8203 57.8906 60.3281 57.9922 60.9375 57.9922C61.5469 57.9922 62.2578 57.6875 62.6641 57.1797C63.4766 56.2656 63.375 54.8437 62.4609 54.0312Z" fill="white"/>
</g>
</g>
</svg>
